{"title":"The.Redemption.of.the.Devil.2015.DOCU.WEBRiP.XViD.ReLeNTLesS","uid":12762368,"size":1172209005,"categoryP":"video","categoryS":"movies","magnet":"?xt=urn:btih:80ba8a6ec8da6d30de665bcce26df96d5bc5465c&amp;dn=The.Redemption.of.the.Devil.2015.DOCU.WEBRiP.XViD.ReLeNTLesS&amp;tr=udp%3A%2F%2Ftracker.leechers-paradise.org%3A6969&amp;tr=udp%3A%2F%2Fzer0day.ch%3A1337&amp;tr=udp%3A%2F%2Fopen.demonii.com%3A1337&amp;tr=udp%3A%2F%2Ftracker.coppersurfer.tk%3A6969&amp;tr=udp%3A%2F%2Fexodus.desync.com%3A6969","seeders":1,"leechers":1,"uploader":"TvTeam","files":4,"time":1447546682,"description":"------------------------------------------------------------------------\r\n\r  https://www.torrenting.com\r\n\r\nSign up is OPEN - for time being. Come and have fun.\r\n\r\n------------------------------------------------------------------------P0STER\r\n[img]http://i.imgur.com/FOMAhKP.png[/img]\r\n\r\niMDB: http://www.imdb.com/title/tt5124104/\r\n\r\nGeneral\r\nComplete name               : The.Redemption.of.the.Devil.2015.DOCU.WEBRiP.XViD.ReLeNTLesS.avi\r\nFormat                      : AVI\r\nFormat/Info                 : Audio Video Interleave\r\nFile size                   : 1.08 GiB\r\nDuration                    : 1h 21mn\r\nOverall bit rate            : 1 900 Kbps\r\n\r\nVideo\r\nID                          : 0\r\nFormat                      : MPEG-4 Visual\r\nFormat profile              : Advanced   \r\nFormat settings, BVOP       : 1\r\nFormat settings, QPel       : No\r\nFormat settings, GMC        : No warppoints\r\nFormat settings, Matrix     : Default (H.263)\r\nMuxing mode                 : Packed bitstream\r\nCodec ID                    : XVID\r\nCodec ID/Hint               : XviD\r\nDuration                    : 1h 21mn\r\nBit rate                    : 1 700 Kbps\r\nWidth                       : 720 pixels\r\nHeight                      : 400 pixels\r\nDisplay aspect ratio        : 16:9\r\nFrame rate                  : 25.000 fps\r\nColor space                 : YUV\r\nChroma subsampling          : 4:2:0\r\nBit depth                   : 8 bits\r\nScan type                   : Progressive\r\nCompression mode            : Lossy\r\nBits/(Pixel*Frame)          : 0.236\r\nStream size                 : 992 MiB (89%)\r\nWriting library             : XviD 1.2.1 (UTC 2008-12-04)\r\n\r\nAudio\r\nID                          : 1\r\nFormat                      : AC-3\r\nFormat/Info                 : Audio Coding 3\r\nMode extension              : CM (complete main)\r\nFormat settings, Endianness : Big\r\nCodec ID                    : 2000\r\nDuration                    : 1h 21mn\r\nBit rate mode               : Constant\r\nBit rate                    : 192 Kbps\r\nChannel(s)                  : 2 channels\r\nChannel positions           : Front: L R\r\nSampling rate               : 48.0 KHz\r\nCompression mode            : Lossy\r\nStream size                 : 112 MiB (10%)\r\nAlignment                   : Aligned on interleaves\r\nInterleave, duration        : 64 ms (1.60 video frames)\r\nInterleave, preload duratio : 192 ms\r\nTitle                       : The.Redemption.of.the.Devil.2015.ReLeNTLesS.English\r\nSample Included             : Yes\r\nSource                      : CHD Thanks \r\n\r\nPL0T\r\nJesse Hughes, AKA Boots Electric, AKA The Fabulous Weapon, AKA &quot;The Devil&quot; - guitarist, beloved frontman of the band Eagles of Death Metal, man of God, and (possibly) aspiring conservative politician. VICE presents The Redemption of the Devil, which follows Jesse as he gets ordained as a Catholic minister, begins an intense relationship with an ex porn star, explores the political arena, and fights for custody of his only child, all while preparing for the fervently awaited release of his first album since 2008 with childhood best friend Josh Homme, frontman of Queens of the Stone Age.\r\n\r\nCAST\r\nDirector: Alex Hoffman\r\nStars: Jesse Hughes\r\n\r\nSCREENS\r\n[img]http://i.imgur.com/6ijF1Gd.png[/img]\r\n[img]http://i.imgur.com/SJjduf7.png[/img]\r\n[img]http://i.imgur.com/R9XPacT.png[/img]\r\n[img]http://i.imgur.com/xvdh9yM.png[/img]\r\n[img]http://i.imgur.com/LloHBrq.png[/img]\r\n[img]http://i.imgur.com/QcyACwr.png[/img]\r\n\r\nTRAiLER\r\n\r\nGREETZ\r\n\r\n\r\nHIVE-CM8, Blackjesus, M0RPH, M00SE, MiLLENiUM,\r\n\r\nMANiX, TiTAN, Anonymous, TuX, \r\n\r\nACAB, KingStoner, FooKas, 4PlayHD, \r\n\r\nSoZE, GodFather, Cld.... \r\n\r\nKeep up the good work guyz","torrent":{"xt":"urn:btih:80ba8a6ec8da6d30de665bcce26df96d5bc5465c","amp;dn":"The.Redemption.of.the.Devil.2015.DOCU.WEBRiP.XViD.ReLeNTLesS","amp;tr":["udp%3A%2F%2Ftracker.leechers-paradise.org%3A6969","udp%3A%2F%2Fzer0day.ch%3A1337","udp%3A%2F%2Fopen.demonii.com%3A1337","udp%3A%2F%2Ftracker.coppersurfer.tk%3A6969","udp%3A%2F%2Fexodus.desync.com%3A6969"],"infoHash":"80ba8a6ec8da6d30de665bcce26df96d5bc5465c","infoHashBuffer":{"type":"Buffer","data":[128,186,138,110,200,218,109,48,222,102,91,204,226,109,249,109,91,197,70,92]},"announce":[],"urlList":[]}}